<svg xmlns="http://www.w3.org/2000/svg" xmlns:xlink="http://www.w3.org/1999/xlink" viewBox="0 0 250 98.89428"><defs><clipPath id="clip-path" transform="translate(0 -0.00001)"><rect x="0.0004" width="250" height="98.89419" style="fill:none"/></clipPath></defs><title>Asset 1</title><g id="Layer_2" data-name="Layer 2"><g id="Layer_1-2" data-name="Layer 1"><g style="clip-path:url(#clip-path)"><path d="M126.992,45.55364a30.721,30.721,0,0,0-7.62195-8.04633A34.02284,34.02284,0,0,0,98.67918,30.529c-.78571,0-1.56242.036-2.33512.08808l12.89676-27.378H88.83521L67.45471,49.44019l.001.001c-2.45124,6.20366-3.301,9.28147-3.299,14.40614a39.23058,39.23058,0,0,0,.48244,6.03851A35.783,35.783,0,0,0,69.07819,82.6715a31.04966,31.04966,0,0,0,8.809,9.5447,33.21946,33.21946,0,0,0,6.84424,3.70138A34.18416,34.18416,0,0,0,126.992,45.55364M98.73524,79.86093a15.01369,15.01369,0,1,1,15.01369-15.01369A15.014,15.014,0,0,1,98.73524,79.86093" transform="translate(0 -0.00001)" style="fill:#fff"/><polygon points="218.525 3.946 191.333 64.214 186.746 3.946 155.801 3.946 128.587 94.459 150.831 94.459 168.897 37.003 173.483 94.459 200.176 94.459 226.803 35.075 227.92 33.039 227.92 35.386 227.92 94.459 250 94.459 250 3.946 218.525 3.946" style="fill:#f47920"/><path d="M66.7789,32.58272C65.97717,14.36711,51.584,0,33.40847,0a33.408,33.408,0,1,0,0,66.81593c.34231,0,.68162-.015,1.02092-.026L20.63582,93.93767H40.66408L62.524,49.83245A37.75693,37.75693,0,0,0,66.7789,32.58272M33.40847,48.7965A15.01369,15.01369,0,1,1,48.42216,33.78282,15.014,15.014,0,0,1,33.40847,48.7965" transform="translate(0 -0.00001)" style="fill:#fff"/></g></g></g></svg>